[img]http://img853.imageshack.us/img853/8540/capb.jpg[/img]
[code]
Captain America The First Avenger 2011 TS New Source XViD - IMAGiNE

Ripper ...........: IMAGiNE   
IMDB Rating.......:7.9/10                             
Video Codec.......: XVID      
Release Date......:25/07/10
Audio Codec.......:MP3        
Theatre Date......:22/07/10
Audio Bitrate.....:128                                              Runtime.......:1h 54mn
Subtitles.........:NIL                                                Language..........:ENGLISH
Resolution...... 720 x 304  
IMDb URL.......... http://www.imdb.com/title/tt0458339/


DETAILS:

Video
ID                               : 0
Format                           : MPEG-4 Visual
Format profile                   : Advanced Simple@L5
Format settings, BVOP            : 2
Format settings, QPel            : No
Format settings, GMC             : No warppoints
Format settings, Matrix          : Default (MPEG)
Muxing mode                      : Packed bitstream
Codec ID                         : XVID
Codec ID/Hint                    : XviD
Duration                         : 1h 54mn
Bit rate                         : 2 420 Kbps
Width                            : 720 pixels
Height                           : 304 pixels
Display aspect ratio             : 2.35:1
Frame rate                       : 29.970 fps
Color space                      : YUV
Chroma subsampling               : 4:2:0
Bit depth                        : 8 bits
Scan type                        : Progressive
Compression mode                 : Lossy
Bits/(Pixel*Frame)               : 0.369
Stream size                      : 1.93 GiB (94%)
Writing library                  : XviD 64

Audio
ID                               : 1
Format                           : MPEG Audio
Format version                   : Version 1
Format profile                   : Layer 3
Codec ID                         : 55
Codec ID/Hint                    : MP3
Duration                         : 1h 54mn
Bit rate mode                    : Constant
Bit rate                         : 128 Kbps
Channel(s)                       : 2 channels
Sampling rate                    : 44.1 KHz
Compression mode                 : Lossy
Stream size                      : 104 MiB (5%)
Alignment                        : Split accross interleaves
Interleave, duration             : 33 ms (1.00 video frame)
Interleave, preload duration     : 500 ms

SOURCES:
VIDEO: .............. Thanks Mate 
AUDIO: .............. Thanks Matey 

Plot:
After being deemed unfit for military service, Steve Rogers volunteers for a top secret research project that turns him into Captain America, a superhero dedicated to defending America's ideals.

NOTES:
IMAGiNE bringing you another release..........
Captain America The First Avenger TS...........
Ok heres our first go at Captain America......
First we made a script to crop rotate and resize then made some adjustments to the RGB and such The audio is LiNE we synced filtered and remuxed to our encode, some static in there but sounds good never the less 

Enjoy!

[/code]
Screens:
[img]http://img855.imageshack.us/img855/7871/76302582.jpg[/img]
[img]http://img402.imageshack.us/img402/9840/34334436.jpg[/img]
[img]http://img220.imageshack.us/img220/248/14048302.jpg[/img]
[img]http://img69.imageshack.us/img69/4296/68211277.jpg[/img]
[img]http://img62.imageshack.us/img62/5870/96461487.jpg[/img]